<svg xmlns="http://www.w3.org/2000/svg" width="480" height="280" viewBox="0 0 480 280" role="img" aria-label="幅の異なる黒い縦線と白い間隔が並ぶ商品コード"><rect width="480" height="280" rx="20" fill="#f2f6f8"/><rect x="42" y="46" width="396" height="184" rx="8" fill="white"/><rect x="94" y="70" width="3" height="123" fill="#182e38"/><rect x="100" y="70" width="3" height="123" fill="#182e38"/><rect x="112" y="70" width="3" height="111" fill="#182e38"/><rect x="115" y="70" width="3" height="111" fill="#182e38"/><rect x="121" y="70" width="3" height="111" fill="#182e38"/><rect x="133" y="70" width="3" height="111" fill="#182e38"/><rect x="136" y="70" width="3" height="111" fill="#182e38"/><rect x="142" y="70" width="3" height="111" fill="#182e38"/><rect x="148" y="70" width="3" height="111" fill="#182e38"/><rect x="151" y="70" width="3" height="111" fill="#182e38"/><rect x="160" y="70" width="3" height="111" fill="#182e38"/><rect x="163" y="70" width="3" height="111" fill="#182e38"/><rect x="172" y="70" width="3" height="111" fill="#182e38"/><rect x="175" y="70" width="3" height="111" fill="#182e38"/><rect x="181" y="70" width="3" height="111" fill="#182e38"/><rect x="184" y="70" width="3" height="111" fill="#182e38"/><rect x="190" y="70" width="3" height="111" fill="#182e38"/><rect x="193" y="70" width="3" height="111" fill="#182e38"/><rect x="196" y="70" width="3" height="111" fill="#182e38"/><rect x="199" y="70" width="3" height="111" fill="#182e38"/><rect x="205" y="70" width="3" height="111" fill="#182e38"/><rect x="214" y="70" width="3" height="111" fill="#182e38"/><rect x="217" y="70" width="3" height="111" fill="#182e38"/><rect x="220" y="70" width="3" height="111" fill="#182e38"/><rect x="226" y="70" width="3" height="111" fill="#182e38"/><rect x="232" y="70" width="3" height="123" fill="#182e38"/><rect x="238" y="70" width="3" height="123" fill="#182e38"/><rect x="244" y="70" width="3" height="111" fill="#182e38"/><rect x="253" y="70" width="3" height="111" fill="#182e38"/><rect x="256" y="70" width="3" height="111" fill="#182e38"/><rect x="259" y="70" width="3" height="111" fill="#182e38"/><rect x="265" y="70" width="3" height="111" fill="#182e38"/><rect x="271" y="70" width="3" height="111" fill="#182e38"/><rect x="286" y="70" width="3" height="111" fill="#182e38"/><rect x="298" y="70" width="3" height="111" fill="#182e38"/><rect x="307" y="70" width="3" height="111" fill="#182e38"/><rect x="316" y="70" width="3" height="111" fill="#182e38"/><rect x="328" y="70" width="3" height="111" fill="#182e38"/><rect x="331" y="70" width="3" height="111" fill="#182e38"/><rect x="334" y="70" width="3" height="111" fill="#182e38"/><rect x="340" y="70" width="3" height="111" fill="#182e38"/><rect x="349" y="70" width="3" height="111" fill="#182e38"/><rect x="364" y="70" width="3" height="111" fill="#182e38"/><rect x="370" y="70" width="3" height="123" fill="#182e38"/><rect x="376" y="70" width="3" height="123" fill="#182e38"/><text x="76" y="211" text-anchor="middle" font-family="Arial, Meiryo, sans-serif" font-size="25" fill="#263b4a">2</text><text x="169" y="211" text-anchor="middle" font-family="Arial, Meiryo, sans-serif" font-size="25" fill="#263b4a">001234</text><text x="310" y="211" text-anchor="middle" font-family="Arial, Meiryo, sans-serif" font-size="25" fill="#263b4a">567893</text></svg>
