<svg xmlns="http://www.w3.org/2000/svg" width="480" height="280" viewBox="0 0 480 280"><rect width="480" height="280" rx="20" fill="#f7f5ef"/><g stroke="#344c52" stroke-width="4" stroke-linejoin="round" stroke-linecap="round"><path d="M157 105.66684670260958V144.45776509488852" fill="none" stroke="#91a6a8" stroke-width="1.5"/><path d="M168 97.48737965193169V170.27420797359062" fill="none" stroke="#91a6a8" stroke-width="1.5"/><path d="M179 92.70654558753104V185.36371548935517" fill="none" stroke="#91a6a8" stroke-width="1.5"/><path d="M190 89.34797347131507V195.96420873116182" fill="none" stroke="#91a6a8" stroke-width="1.5"/><path d="M201 86.89702973673161V203.69999989344086" fill="none" stroke="#91a6a8" stroke-width="1.5"/><path d="M212 85.12945384814319V209.27891129179807" fill="none" stroke="#91a6a8" stroke-width="1.5"/><path d="M223 83.92840148295333V213.06973281942857" fill="none" stroke="#91a6a8" stroke-width="1.5"/><path d="M234 83.22955683971131V215.27546122466117" fill="none" stroke="#91a6a8" stroke-width="1.5"/><path d="M245 83V216" fill="none" stroke="#91a6a8" stroke-width="1.5"/><path d="M256 83.22955683971131V215.27546122466117" fill="none" stroke="#91a6a8" stroke-width="1.5"/><path d="M267 83.92840148295333V213.06973281942857" fill="none" stroke="#91a6a8" stroke-width="1.5"/><path d="M278 85.12945384814319V209.27891129179807" fill="none" stroke="#91a6a8" stroke-width="1.5"/><path d="M289 86.89702973673161V203.69999989344086" fill="none" stroke="#91a6a8" stroke-width="1.5"/><path d="M300 89.34797347131507V195.96420873116182" fill="none" stroke="#91a6a8" stroke-width="1.5"/><path d="M311 92.70654558753104V185.36371548935517" fill="none" stroke="#91a6a8" stroke-width="1.5"/><path d="M322 97.48737965193169V170.27420797359062" fill="none" stroke="#91a6a8" stroke-width="1.5"/><path d="M333 105.66684670260958V144.45776509488852" fill="none" stroke="#91a6a8" stroke-width="1.5"/><path d="M195.6202533927117 88H294.37974660728827" fill="none" stroke="#91a6a8" stroke-width="1.5"/><path d="M165.32566285183165 99H324.6743371481683" fill="none" stroke="#91a6a8" stroke-width="1.5"/><path d="M154.12998638164512 110H335.87001361835485" fill="none" stroke="#91a6a8" stroke-width="1.5"/><path d="M153.1624805035755 121H336.83751949642453" fill="none" stroke="#91a6a8" stroke-width="1.5"/><path d="M154.3125688120289 132H335.68743118797113" fill="none" stroke="#91a6a8" stroke-width="1.5"/><path d="M156.60600981828532 143H333.3939901817147" fill="none" stroke="#91a6a8" stroke-width="1.5"/><path d="M160.13544932321628 154H329.8645506767837" fill="none" stroke="#91a6a8" stroke-width="1.5"/><path d="M165.06444120758925 165H324.93555879241075" fill="none" stroke="#91a6a8" stroke-width="1.5"/><path d="M171.67468176753164 176H318.32531823246836" fill="none" stroke="#91a6a8" stroke-width="1.5"/><path d="M180.48086977581147 187H309.51913022418853" fill="none" stroke="#91a6a8" stroke-width="1.5"/><path d="M192.57823760656194 198H297.42176239343803" fill="none" stroke="#91a6a8" stroke-width="1.5"/><path d="M211.3463030777064 209H278.6536969222936" fill="none" stroke="#91a6a8" stroke-width="1.5"/><path d="M153 115A92 101 0 0 0 337 115" fill="none"/><ellipse cx="245" cy="115" rx="92" ry="32" fill="none"/><path d="M156 107 56 68Q40 64 39 79Q39 87 51 91L153 128Z" fill="#628378"/><path d="M337 111H370Q384 112 382 124H339" fill="none" stroke="#7a959a" stroke-width="7"/></g></svg>