<svg xmlns="http://www.w3.org/2000/svg" width="480" height="280" viewBox="0 0 480 280"><rect width="480" height="280" rx="18" fill="#f2f5ef"/><g font-family="'Noto Sans JP','Yu Gothic',sans-serif"><rect x="22" y="58" width="94" height="176" rx="8" fill="#fff" stroke="#cad2d1" stroke-width="2"/><text x="69" y="39" font-size="22" text-anchor="middle" fill="#21363d">A</text><text x="44" y="94" font-size="28" text-anchor="middle" fill="#21363d">K</text><g transform="translate(69 151) scale(0.7)" fill="#b53f49"><path d="M0 35C-8 23 -42 4 -35 -17C-30 -35 -9 -35 0 -19C9 -35 30 -35 35 -17C42 4 8 23 0 35Z"/></g><rect x="136" y="58" width="94" height="176" rx="8" fill="#fff" stroke="#cad2d1" stroke-width="2"/><text x="183" y="39" font-size="22" text-anchor="middle" fill="#21363d">B</text><text x="158" y="94" font-size="28" text-anchor="middle" fill="#21363d">Q</text><g transform="translate(183 151) scale(0.7)" fill="#b53f49"><path d="M0 -40L30 0L0 40L-30 0Z"/></g><rect x="250" y="58" width="94" height="176" rx="8" fill="#fff" stroke="#cad2d1" stroke-width="2"/><text x="297" y="39" font-size="22" text-anchor="middle" fill="#21363d">C</text><text x="272" y="94" font-size="28" text-anchor="middle" fill="#21363d">Q</text><g transform="translate(297 151) scale(0.7)" fill="#b53f49"><path d="M0 35C-8 23 -42 4 -35 -17C-30 -35 -9 -35 0 -19C9 -35 30 -35 35 -17C42 4 8 23 0 35Z"/></g><rect x="364" y="58" width="94" height="176" rx="8" fill="#fff" stroke="#cad2d1" stroke-width="2"/><text x="411" y="39" font-size="22" text-anchor="middle" fill="#21363d">D</text><text x="386" y="94" font-size="28" text-anchor="middle" fill="#21363d">J</text><g transform="translate(411 151) scale(0.7)" fill="#243037"><circle cx="0" cy="-18" r="19"/><circle cx="-19" cy="8" r="19"/><circle cx="19" cy="8" r="19"/><rect x="-5" y="-6" width="10" height="28"/><path d="M-4 13L-12 42L12 42L4 13Z"/></g></g></svg>
