<svg xmlns="http://www.w3.org/2000/svg" width="480" height="280" viewBox="0 0 480 280"><rect width="480" height="280" rx="16" fill="#f6f8f7"/><g transform="translate(240 140) scale(4.15) translate(-314.5 -67.5)"><path d="M 295.283 90.36 L 294.817 90.315 L 294.36 90.203 L 293.947 90.03 L 293.565 89.79 L 293.22 89.505 L 292.942 89.168 L 292.695 88.778 L 292.53 88.365 L 292.41 87.915 L 292.373 87.443 L 292.373 46.71 L 292.41 46.238 L 292.53 45.795 L 292.695 45.375 L 292.942 44.985 L 293.22 44.663 L 293.565 44.363 L 293.947 44.138 L 294.36 43.95 L 294.817 43.838 L 295.283 43.808 L 336.022 43.808 L 336.488 43.838 L 336.93 43.95 L 337.358 44.138 L 337.725 44.363 L 338.07 44.663 L 338.37 44.985 L 338.595 45.375 L 338.783 45.795 L 338.895 46.238 L 338.918 46.71 L 338.918 87.443 L 338.895 87.915 L 338.783 88.365 L 338.595 88.778 L 338.37 89.168 L 338.07 89.505 L 337.725 89.79 L 337.358 90.03 L 336.93 90.203 L 336.488 90.315 L 336.022 90.36 L 295.283 90.36" fill="none" stroke="#000000" stroke-width="0.2417" fill-rule="nonzero" stroke-linejoin="round"/><path d="M 324.675 76.68 L 324.517 76.11 L 324.293 75.585 L 323.993 75.105 L 323.647 74.648 L 323.235 74.25 L 322.785 73.905 L 322.283 73.62 L 321.743 73.41 L 321.18 73.268 L 320.595 73.2 L 320.595 72.12 L 320.55 71.55 L 320.467 71.01 L 320.31 70.485 L 320.092 69.968 L 319.837 69.488 L 319.515 69.045 L 319.14 68.618 L 318.728 68.25 L 318.277 67.935 L 317.79 67.665 L 317.295 67.455 L 316.755 67.313 L 316.215 67.208 L 315.645 67.185 L 314.993 67.223 L 314.355 67.35 L 313.74 67.568 L 313.17 67.853 L 312.645 68.205 L 312.18 68.633 L 311.752 69.105 L 311.392 69.63 L 311.108 70.2 L 310.897 70.808 L 310.77 71.445 L 310.725 72.12 L 310.725 73.2 L 310.132 73.268 L 309.563 73.41 L 309.038 73.62 L 308.535 73.905 L 308.085 74.25 L 307.673 74.648 L 307.313 75.09 L 307.027 75.57 L 306.803 76.11 L 306.63 76.665 L 306.33 78.248 L 306.075 79.838 L 305.91 81.443 L 305.79 83.078 L 305.767 84.743 L 325.553 84.743 L 325.515 83.093 L 325.41 81.458 L 325.23 79.838 L 324.99 78.248 L 324.675 76.68 M 313.283 69.743 L 313.627 69.443 L 313.98 69.203 L 314.377 69.015 L 314.79 68.873 L 315.217 68.79 L 315.645 68.76 L 316.103 68.79 L 316.53 68.873 L 316.942 69.015 L 317.325 69.203 L 317.692 69.443 L 318.038 69.743 L 318.322 70.073 L 318.563 70.44 L 318.757 70.823 L 318.9 71.235 L 318.99 71.678 L 319.012 72.12 L 319.012 73.2 L 312.308 73.2 L 312.308 72.12 L 312.33 71.678 L 312.42 71.235 L 312.563 70.823 L 312.743 70.44 L 312.998 70.073 L 313.283 69.743" fill="#000000" stroke="#000000" stroke-width="0.12" fill-rule="nonzero" stroke-linejoin="round"/><path d="M 329.377 60.713 L 327.848 60.113 L 326.31 59.573 L 324.743 59.123 L 323.152 58.755 L 321.563 58.44 L 319.942 58.208 L 318.308 58.058 L 316.673 57.968 L 316.673 55.74 L 316.642 55.538 L 316.567 55.35 L 316.455 55.185 L 316.298 55.058 L 316.275 55.028 L 316.2 54.968 L 316.072 54.885 L 315.915 54.788 L 315.743 54.66 L 315.548 54.518 L 315.36 54.39 L 315.165 54.248 L 314.993 54.113 L 314.835 54 L 314.723 53.918 L 314.64 53.858 L 314.61 53.843 L 314.34 53.618 L 314.108 53.333 L 313.942 53.025 L 313.837 52.68 L 313.815 52.328 L 313.837 51.953 L 313.957 51.615 L 314.123 51.3 L 314.355 51.015 L 314.64 50.79 L 314.947 50.618 L 315.293 50.505 L 315.645 50.475 L 316.012 50.505 L 316.373 50.618 L 316.68 50.79 L 316.965 51.015 L 317.183 51.27 L 317.34 51.555 L 317.452 51.855 L 317.498 52.185 L 319.515 52.185 L 319.47 51.698 L 319.373 51.233 L 319.2 50.775 L 318.99 50.348 L 318.72 49.95 L 318.39 49.598 L 318.007 49.253 L 317.595 48.968 L 317.137 48.758 L 316.673 48.585 L 316.17 48.488 L 315.645 48.458 L 315.15 48.488 L 314.647 48.585 L 314.183 48.758 L 313.725 48.968 L 313.313 49.253 L 312.93 49.598 L 312.592 49.98 L 312.308 50.393 L 312.09 50.843 L 311.918 51.315 L 311.82 51.81 L 311.79 52.328 L 311.835 52.868 L 311.933 53.378 L 312.12 53.888 L 312.36 54.345 L 312.675 54.788 L 313.043 55.17 L 313.455 55.508 L 314.595 56.303 L 314.647 56.348 L 314.647 57.983 L 313.027 58.073 L 311.408 58.223 L 309.817 58.455 L 308.228 58.763 L 306.66 59.138 L 305.108 59.588 L 303.592 60.113 L 302.085 60.713 L 300.69 61.343 L 299.31 62.025 L 297.99 62.775 L 297.998 63.3 L 298.103 63.84 L 298.267 64.365 L 298.53 64.883 L 298.785 65.265 L 299.07 65.618 L 299.392 65.933 L 299.752 66.203 L 300.99 65.49 L 302.265 64.853 L 303.577 64.253 L 305.025 63.683 L 306.502 63.188 L 307.995 62.775 L 309.517 62.423 L 311.04 62.153 L 312.592 61.965 L 314.152 61.853 L 315.728 61.808 L 317.295 61.853 L 318.863 61.965 L 320.408 62.153 L 321.945 62.423 L 323.452 62.775 L 324.945 63.188 L 326.423 63.683 L 327.87 64.253 L 329.183 64.853 L 330.457 65.49 L 331.695 66.203 L 332.055 65.933 L 332.377 65.618 L 332.663 65.265 L 332.918 64.883 L 333.18 64.365 L 333.345 63.84 L 333.45 63.3 L 333.457 62.775 L 332.137 62.025 L 330.772 61.343 L 329.377 60.713" fill="#000000" stroke="#000000" stroke-width="0.12" fill-rule="nonzero" stroke-linejoin="round"/></g></svg>
