<svg xmlns="http://www.w3.org/2000/svg" width="480" height="280" viewBox="0 0 480 280"><rect width="480" height="280" rx="16" fill="#faf8f2"/><g font-family="'Yu Gothic','Meiryo',sans-serif" fill="#243c44" font-weight="500"><text x="240" y="30" font-size="21" text-anchor="middle">水まわりの配置</text><rect x="60" y="56" width="156" height="144" fill="#e1eced" stroke="#364a50" stroke-width="4"/><rect x="216" y="56" width="194" height="63" fill="#e1eced" stroke="#364a50" stroke-width="4"/><rect x="216" y="119" width="194" height="81" fill="#f1e9d9" stroke="#364a50" stroke-width="4"/><rect x="60" y="200" width="350" height="32" fill="#faf8f2" stroke="#364a50" stroke-width="4"/><rect x="230" y="150" width="65" height="38" fill="#ffffff" stroke="#7f9296" stroke-width="2"/><text x="138" y="112" font-size="23" text-anchor="middle">浴室</text><text x="138" y="141" font-size="20" text-anchor="middle">UB</text><text x="315" y="84" font-size="20" text-anchor="middle">トイレ</text><text x="315" y="108" font-size="17" text-anchor="middle">WC</text><text x="313" y="142" font-size="19" text-anchor="middle">洗面脱衣室</text><text x="263" y="174" font-size="16" text-anchor="middle">洗面台</text><text x="135" y="223" font-size="19" text-anchor="middle">廊下</text><line x1="216" y1="151" x2="216" y2="179" stroke="#faf8f2" stroke-width="8"/><line x1="313" y1="200" x2="343" y2="200" stroke="#faf8f2" stroke-width="8"/><rect x="374" y="119" width="36" height="81" fill="#faf8f2" stroke="#364a50" stroke-width="4"/><line x1="379" y1="119" x2="401" y2="119" stroke="#faf8f2" stroke-width="8"/><line x1="379" y1="200" x2="401" y2="200" stroke="#faf8f2" stroke-width="8"/><text x="240" y="259" font-size="16" text-anchor="middle">太線＝壁　切れ目＝出入口</text></g></svg>
